<?xml version="1.0" standalone="no"?>
<!DOCTYPE svg PUBLIC "-//W3C//DTD SVG 20010904//EN"
 "http://www.w3.org/TR/2001/REC-SVG-20010904/DTD/svg10.dtd">
<svg version="1.0" xmlns="http://www.w3.org/2000/svg"
 width="994.000000pt" height="1172.000000pt" viewBox="0 0 994.000000 1172.000000"
 preserveAspectRatio="xMidYMid meet">

<g transform="translate(0.000000,1172.000000) scale(0.100000,-0.100000)"
fill="#000000" stroke="none">
<path d="M2093 11696 c8 -21 6568 -11550 6578 -11561 5 -5 9 -5 9 -1 0 5 281
1162 625 2570 344 1409 625 2566 625 2571 0 17 -1306 2307 -1316 2307 -5 0
-105 -205 -223 -455 l-213 -456 428 -753 c236 -414 429 -762 429 -773 -1 -27
-669 -2765 -675 -2765 -3 0 -1186 2076 -2629 4613 -1443 2536 -2625 4614
-2627 4616 -4 4 -949 100 -993 101 -15 0 -21 -4 -18 -14z"/>
<path d="M1260 11585 c0 -5 -282 -1164 -626 -2575 -454 -1862 -624 -2571 -617
-2586 20 -52 1308 -2303 1314 -2296 4 5 352 746 419 893 11 24 -22 84 -420
784 l-431 758 338 1388 c186 764 340 1389 343 1389 3 -1 1186 -2078 2630
-4617 1444 -2538 2630 -4617 2635 -4619 25 -8 1000 -99 1003 -93 2 5 -6513
11466 -6569 11554 -10 17 -19 26 -19 20z"/>
</g>
</svg>
